<?xml version="1.0" encoding="UTF-8" standalone="no"?>
<svg
   xmlns:dc="http://purl.org/dc/elements/1.1/"
   xmlns:cc="http://creativecommons.org/ns#"
   xmlns:rdf="http://www.w3.org/1999/02/22-rdf-syntax-ns#"
   xmlns:svg="http://www.w3.org/2000/svg"
   xmlns="http://www.w3.org/2000/svg"
   xmlns:sodipodi="http://sodipodi.sourceforge.net/DTD/sodipodi-0.dtd"
   xmlns:inkscape="http://www.inkscape.org/namespaces/inkscape"
   width="256.0px"
   height="256.0px"
   viewBox="0 0 256.0 256.0"
   version="1.1"
   id="SVGRoot"
   sodipodi:docname="kuwo_icon.svg"
   inkscape:version="1.0.1 (3bc2e813f5, 2020-09-07)">
  <defs
     id="defs362">
    <filter
       style="color-interpolation-filters:sRGB;"
       inkscape:label="Fade to Black or White"
       id="filter502">
      <feColorMatrix
         values="1.38778e-16 0 0 0 1 0 1.38778e-16 0 0 1 0 0 1.38778e-16 0 1 0 0 0 1 0"
         id="feColorMatrix500"
         result="fbSourceGraphic" />
      <feColorMatrix
         result="fbSourceGraphicAlpha"
         in="fbSourceGraphic"
         values="0 0 0 -1 0 0 0 0 -1 0 0 0 0 -1 0 0 0 0 1 0"
         id="feColorMatrix504" />
      <feColorMatrix
         id="feColorMatrix506"
         values="1.38778e-16 0 0 0 1 0 1.38778e-16 0 0 1 0 0 1.38778e-16 0 1 0 0 0 1 0"
         in="fbSourceGraphic"
         result="fbSourceGraphic" />
      <feColorMatrix
         result="fbSourceGraphicAlpha"
         in="fbSourceGraphic"
         values="0 0 0 -1 0 0 0 0 -1 0 0 0 0 -1 0 0 0 0 1 0"
         id="feColorMatrix526" />
      <feColorMatrix
         id="feColorMatrix528"
         values="1 0 0 0 0 0 1 0 0 0 0 0 1 0 0 0 0 0 1 0"
         in="fbSourceGraphic" />
    </filter>
  </defs>
  <sodipodi:namedview
     id="base"
     pagecolor="#ffffff"
     bordercolor="#666666"
     borderopacity="1.0"
     inkscape:pageopacity="0.0"
     inkscape:pageshadow="2"
     inkscape:zoom="1.979899"
     inkscape:cx="174.30525"
     inkscape:cy="171.08496"
     inkscape:document-units="px"
     inkscape:current-layer="g868"
     inkscape:document-rotation="0"
     showgrid="true"
     inkscape:window-width="1458"
     inkscape:window-height="685"
     inkscape:window-x="247"
     inkscape:window-y="316"
     inkscape:window-maximized="0">
    <inkscape:grid
       type="xygrid"
       id="grid371" />
  </sodipodi:namedview>
  <metadata
     id="metadata365">
    <rdf:RDF>
      <cc:Work
         rdf:about="">
        <dc:format>image/svg+xml</dc:format>
        <dc:type
           rdf:resource="http://purl.org/dc/dcmitype/StillImage" />
        <dc:title />
      </cc:Work>
    </rdf:RDF>
  </metadata>
  <g
     inkscape:label="图层 1"
     inkscape:groupmode="layer"
     id="layer1"
     style="display:inline">
    <g
       style="clip-rule:evenodd;display:inline;fill-rule:evenodd"
       id="g704"
       transform="matrix(0.125,0,0,0.125,82.3625,108.3075)">
      <g
         id="g1539"
         transform="matrix(1.8956055,0,0,1.8956055,-605.45002,-813.01002)"
         style="display:inline">
        <g
           id="g868"
           transform="matrix(1.1208442,0,0,1.1208442,-57.565111,-47.816777)">
          <path
             d="M 0,0 H 0.3 C 0.22,0.07 0.07,0.22 0,0.29 Z m 408.36,500.42 c 13.58,-14.37 26.3,-29.56 40.4,-43.44 0.78,2.94 1.81,5.86 1.75,8.95 0.13,10.02 0.53,20.04 0.45,30.07 -0.13,10.66 0.87,21.3 0.74,31.97 0.55,12.23 -0.13,24.48 0.69,36.69 0.76,19.42 0.17,38.87 1.21,58.27 0.5,16.34 0,32.7 0.97,49.02 0.15,12.68 0.49,25.37 0.43,38.06 0.76,11.98 0.64,23.99 0.94,35.99 -0.29,8.34 0.86,16.64 0.65,24.98 0.13,14.65 0.13,29.32 0.97,43.96 0.06,21.32 0.46,42.63 0.9,63.94 0.96,8.44 2.41,16.9 1.7,25.44 -6.68,-0.78 -12.45,-4.78 -17.66,-8.78 C 383.24,849.13 324,802.68 264.73,756.27 c -9.97,-7.14 -17.05,-18.05 -20.05,-29.9 -1.34,-5.03 -1.55,-10.26 -2.11,-15.41 -4.74,-47.95 -9.46,-95.9 -14.24,-143.84 -0.08,-1.56 -0.07,-3.11 0.03,-4.66 3,2.15 6.29,3.83 9.46,5.7 19.28,11.07 38.51,22.22 57.8,33.27 7.31,4.37 18.12,3.57 23.58,-3.39 29.64,-32.61 59.51,-65.01 89.16,-97.62 z"
             id="path666"
             style="fill:#ffcd11;fill-opacity:1" />
          <path
             d="m 1022.85,0 h 1.15 v 1024 h -1.01 l 0.01,-0.99 c 0.05,-58 0,-116.01 0.02,-174.01 0.12,-246.67 -0.31,-493.33 -0.34,-740 0.12,-36.33 -0.27,-72.67 0.17,-109 z"
             fill="#ececec"
             id="path668" />
          <path
             d="m 558.63,66.73 c 5.29,-4.31 10.5,-9.2 13.03,-15.71 0.33,4.76 1.31,9.43 1.89,14.16 1.68,12.78 2.13,25.75 0.97,38.6 -1.36,9.59 -4.06,19.63 -10.93,26.81 -4.63,4.61 -11.02,6.7 -16.97,9.04 -9.94,3.29 -20.1,5.96 -30.42,7.69 6.69,9.37 14.34,18.03 21.39,27.13 23.19,28.8 46.35,57.62 69.41,86.53 6.12,7.77 13.16,15.28 15.94,25.05 3.89,13.22 2.11,27.68 -3.79,40.04 -14.72,31.25 -50.78,50.37 -84.9,46.42 -15.85,-1.89 -31.54,-9.6 -40.81,-22.92 -8.14,-11.31 -10.67,-26.08 -7.79,-39.61 3.17,-15.62 12.36,-29.59 24.31,-39.95 14.97,-12.8 34.3,-20.89 54.11,-21.13 1.65,-0.09 3.3,-0.23 4.96,-0.31 -0.51,-0.7 -0.99,-1.4 -1.45,-2.11 -32.6,-34.74 -65.03,-69.65 -97.61,-104.42 -3.4,-3.06 -2.34,-8.02 -1.79,-12.01 1.8,-10.33 9.06,-18.54 16.74,-25.17 12.41,-10.21 27.81,-15.45 42.55,-21.25 10.87,-4.64 21.68,-9.75 31.16,-16.88 z m -196.37,65.53 c 6.12,-5.49 14.76,-6.9 22.72,-6.35 13.36,0.59 25.43,7.06 36.95,13.27 10.49,5.25 21.48,9.97 33.17,11.64 3.57,0.58 7.18,0.01 10.7,-0.67 -10.22,11.7 -21.15,23.38 -35.06,30.7 -6.59,3.2 -14.43,5.83 -21.65,3.15 -10.65,-4.14 -19.82,-11.11 -28.98,-17.77 -1.99,6.05 -2.8,12.39 -4.3,18.57 -6.47,30.48 -12.95,60.96 -19.55,91.42 -1.58,6.48 -2.22,13.38 -5.85,19.15 -5.52,9.98 -15.8,16.39 -26.45,19.73 -26.24,7.59 -56.89,-3.08 -72.21,-25.84 -6.8,-10.36 -9.93,-23.61 -6.14,-35.65 3.36,-11.84 12.91,-21.2 24.12,-25.85 22.32,-9.57 49.54,-3.8 67.58,11.96 2.72,2.36 4.93,5.23 7.73,7.49 1.18,-5 1.47,-10.13 2.26,-15.19 4.1,-30.73 8.32,-61.43 12.42,-92.16 0.45,-2.62 0.16,-5.82 2.54,-7.6 z"
             id="path670"
             style="fill:#03b7ff;fill-opacity:1" />
          <path
             d="m 622.94,286.03 c 6.34,-1.12 12.7,-2.1 19.04,-3.19 0.2,15.04 -0.1,30.1 0.72,45.13 0.66,25.97 -0.23,51.98 1.26,77.92 -60.23,14.64 -120.35,29.71 -180.55,44.43 -4.1,0.95 -8.45,0.81 -12.43,-0.56 -61.35,-23.78 -122.54,-48.01 -183.82,-71.96 -17.14,-6.9 -34.56,-13.15 -51.51,-20.48 88.12,-15.62 176.32,-30.78 264.46,-46.27 1.85,-0.35 3.7,-0.67 5.54,-1.09 -2.88,13.53 -0.35,28.3 7.79,39.61 9.27,13.32 24.96,21.03 40.81,22.92 34.12,3.95 70.18,-15.17 84.9,-46.42 5.9,-12.36 7.68,-26.82 3.79,-40.04 z"
             id="path672"
             style="fill:#ff9d1c;fill-opacity:1" />
          <path
             d="m 641.98,282.84 c 4.82,0.14 9.35,1.83 13.91,3.23 69.09,20.92 138.18,41.84 207.29,62.72 1.83,0.58 4,1.28 4.24,3.55 -6.11,2.5 -12.68,3.35 -19.02,5.05 -68.15,16.15 -136.29,32.36 -204.44,48.5 -1.49,-25.94 -0.6,-51.95 -1.26,-77.92 -0.82,-15.03 -0.52,-30.09 -0.72,-45.13 z"
             id="path674"
             style="fill:#ff9d1c;fill-opacity:1;stroke-width:1.00021;stroke-miterlimit:4;stroke-dasharray:none" />
          <path
             d="m 867.42,352.34 0.54,-0.54 c 0.28,0.53 0.86,1.58 1.15,2.11 -0.33,28.32 0.59,56.66 0.07,84.99 -0.29,100.7 -0.11,201.42 -0.23,302.12 0.1,9.88 -4.46,19.6 -11.88,26.07 -4.04,3.69 -9.06,6.05 -14.19,7.83 -118.59,43.05 -237.17,86.13 -355.76,129.2 -3.32,1.09 -6.66,2.21 -10.13,2.74 -5.68,0.57 -11.32,-0.69 -16.87,-1.65 l 0.04,-0.89 c 0.71,-8.54 -0.74,-17 -1.7,-25.44 -0.44,-21.31 -0.84,-42.62 -0.9,-63.94 -0.84,-14.64 -0.84,-29.31 -0.97,-43.96 0.21,-8.34 -0.94,-16.64 -0.65,-24.98 -0.3,-12 -0.18,-24.01 -0.94,-35.99 0.06,-12.69 -0.28,-25.38 -0.43,-38.06 -0.97,-16.32 -0.47,-32.68 -0.97,-49.02 -1.04,-19.4 -0.45,-38.85 -1.21,-58.27 -0.82,-12.21 -0.14,-24.46 -0.69,-36.69 0.13,-10.67 -0.87,-21.31 -0.74,-31.97 0.08,-10.03 -0.32,-20.05 -0.45,-30.07 0.06,-3.09 -0.97,-6.01 -1.75,-8.95 0.1,-2.57 1.27,-4.89 2.22,-7.22 3.98,1.37 8.33,1.51 12.43,0.56 60.2,-14.72 120.32,-29.79 180.55,-44.43 68.15,-16.14 136.29,-32.35 204.44,-48.5 6.34,-1.7 12.91,-2.55 19.02,-5.05 m -123.04,83.11 c -11.77,2.78 -22.2,9.75 -30.24,18.67 -25.37,28.53 -50.41,57.35 -75.85,85.82 -0.31,-11.3 -0.2,-22.62 -0.63,-33.92 -0.95,-10.71 -5.09,-21.32 -12.36,-29.33 -6.29,-6.88 -15.09,-11.27 -24.31,-12.45 -14.3,-1.73 -29.58,1.66 -40.85,10.92 -12.08,9.76 -18.93,24.69 -21.34,39.78 -1.44,8.61 -0.59,17.34 -0.23,25.99 0.05,11.68 0.36,23.35 0.99,35.01 0,11.36 0.46,22.72 0.77,34.08 -0.03,15.01 1.2,29.98 1.05,44.99 0.28,14.33 1.34,28.63 1.27,42.97 0.37,18.01 1.21,36 1.07,54.01 -0.21,13.91 2.94,28.44 11.68,39.57 6.36,8.21 16.29,13.3 26.59,14.19 13.91,1.19 28.77,-1.93 39.66,-11.06 11.97,-9.99 18.28,-25.47 19.66,-40.74 0.43,-21.01 -0.83,-42.03 -0.45,-63.03 5.58,2.66 10.8,5.97 16.21,8.94 25.34,14.32 50.6,28.77 75.99,43 12.99,7.55 28.88,10.72 43.54,6.7 14.3,-3.58 26.66,-13.96 32.48,-27.52 5.09,-11.16 5.2,-24.35 0.53,-35.66 -3.93,-9.06 -11.01,-16.59 -19.64,-21.34 -29.63,-17.16 -59.09,-34.62 -88.87,-51.5 1.18,-2.5 3.31,-4.32 5.12,-6.34 27.67,-30.99 55.41,-61.91 83.07,-92.9 8.09,-8.87 12.9,-20.47 14.31,-32.33 1.11,-14.28 -5.63,-28.9 -17.23,-37.32 -11.63,-9.24 -27.54,-13.02 -41.99,-9.2 z"
             id="path676"
             style="fill:#feec5a;fill-opacity:1" />
          <path
             d="m 869.11,353.91 c 0.68,0.64 1.3,1.35 1.86,2.11 14.57,24.39 29.33,48.68 44,73.01 1.33,2.42 3.53,4.87 2.94,7.85 -0.65,3.5 -4.61,5.43 -7.9,5.17 -13.6,-1.22 -27.25,-1.78 -40.83,-3.15 0.52,-28.33 -0.4,-56.67 -0.07,-84.99 z"
             id="path678"
             style="fill:#ffc779;fill-opacity:1" />
          <path
             d="m 201.67,362.66 c 3.76,-3.35 8.94,-5.38 13.98,-5.34 16.95,7.33 34.37,13.58 51.51,20.48 61.28,23.95 122.47,48.18 183.82,71.96 -0.95,2.33 -2.12,4.65 -2.22,7.22 -14.1,13.88 -26.82,29.07 -40.4,43.44 -29.65,32.61 -59.52,65.01 -89.16,97.62 -5.46,6.96 -16.27,7.76 -23.58,3.39 -19.29,-11.05 -38.52,-22.2 -57.8,-33.27 -3.17,-1.87 -6.46,-3.55 -9.46,-5.7 -2.47,-1.85 -5.06,-3.53 -7.82,-4.92 -40.98,-23.04 -81.91,-46.17 -122.9,-69.19 -3.51,-1.57 -4.68,-6.23 -2.79,-9.45 1.27,-2.02 3.04,-3.65 4.64,-5.41 34.05,-36.94 68.13,-73.88 102.18,-110.83 z"
             id="path680"
             style="fill:#feec5a;fill-opacity:1" />
          <path
             d="m 744.38,435.45 c 14.45,-3.82 30.36,-0.04 41.99,9.2 11.6,8.42 18.34,23.04 17.23,37.32 -1.41,11.86 -6.22,23.46 -14.31,32.33 -27.66,30.99 -55.4,61.91 -83.07,92.9 -1.81,2.02 -3.94,3.84 -5.12,6.34 29.78,16.88 59.24,34.34 88.87,51.5 8.63,4.75 15.71,12.28 19.64,21.34 4.67,11.31 4.56,24.5 -0.53,35.66 -5.82,13.56 -18.18,23.94 -32.48,27.52 -14.66,4.02 -30.55,0.85 -43.54,-6.7 -25.39,-14.23 -50.65,-28.68 -75.99,-43 -5.41,-2.97 -10.63,-6.28 -16.21,-8.94 -0.38,21 0.88,42.02 0.45,63.03 -1.38,15.27 -7.69,30.75 -19.66,40.74 -10.89,9.13 -25.75,12.25 -39.66,11.06 -10.3,-0.89 -20.23,-5.98 -26.59,-14.19 -8.74,-11.13 -11.89,-25.66 -11.68,-39.57 0.14,-18.01 -0.7,-36 -1.07,-54.01 0.07,-14.34 -0.99,-28.64 -1.27,-42.97 0.15,-15.01 -1.08,-29.98 -1.05,-44.99 -0.31,-11.36 -0.77,-22.72 -0.77,-34.08 -0.63,-11.66 -0.94,-23.33 -0.99,-35.01 -0.36,-8.65 -1.21,-17.38 0.23,-25.99 2.41,-15.09 9.26,-30.02 21.34,-39.78 11.27,-9.26 26.55,-12.65 40.85,-10.92 9.22,1.18 18.02,5.57 24.31,12.45 7.27,8.01 11.41,18.62 12.36,29.33 0.43,11.3 0.32,22.62 0.63,33.92 25.44,-28.47 50.48,-57.29 75.85,-85.82 8.04,-8.92 18.47,-15.89 30.24,-18.67 z"
             id="path682"
             style="fill:#ff7200;fill-opacity:1;stroke-width:1.00021;stroke-miterlimit:4;stroke-dasharray:none" />
          <path
             d="m 0,1023 c 341,0.07 682,0.04 1023,0.01 l -0.01,0.99 H 0 Z"
             fill="#c5c5c5"
             id="path684" />
        </g>
      </g>
    </g>
  </g>
</svg>
