<?xml version="1.0" encoding="UTF-8" standalone="no"?>
<svg
   xmlns:dc="http://purl.org/dc/elements/1.1/"
   xmlns:cc="http://creativecommons.org/ns#"
   xmlns:rdf="http://www.w3.org/1999/02/22-rdf-syntax-ns#"
   xmlns:svg="http://www.w3.org/2000/svg"
   xmlns="http://www.w3.org/2000/svg"
   xmlns:sodipodi="http://sodipodi.sourceforge.net/DTD/sodipodi-0.dtd"
   xmlns:inkscape="http://www.inkscape.org/namespaces/inkscape"
   width="256.0px"
   height="256.0px"
   viewBox="0 0 256.0 256.0"
   version="1.1"
   id="SVGRoot"
   sodipodi:docname="icon.svg"
   inkscape:version="1.0.2 (e86c8708, 2021-01-15)">
  <defs
     id="defs362">
    <filter
       style="color-interpolation-filters:sRGB;"
       inkscape:label="Fade to Black or White"
       id="filter502">
      <feColorMatrix
         values="1.38778e-16 0 0 0 1 0 1.38778e-16 0 0 1 0 0 1.38778e-16 0 1 0 0 0 1 0"
         id="feColorMatrix500"
         result="fbSourceGraphic" />
      <feColorMatrix
         result="fbSourceGraphicAlpha"
         in="fbSourceGraphic"
         values="0 0 0 -1 0 0 0 0 -1 0 0 0 0 -1 0 0 0 0 1 0"
         id="feColorMatrix504" />
      <feColorMatrix
         id="feColorMatrix506"
         values="1.38778e-16 0 0 0 1 0 1.38778e-16 0 0 1 0 0 1.38778e-16 0 1 0 0 0 1 0"
         in="fbSourceGraphic"
         result="fbSourceGraphic" />
      <feColorMatrix
         result="fbSourceGraphicAlpha"
         in="fbSourceGraphic"
         values="0 0 0 -1 0 0 0 0 -1 0 0 0 0 -1 0 0 0 0 1 0"
         id="feColorMatrix526" />
      <feColorMatrix
         id="feColorMatrix528"
         values="1 0 0 0 0 0 1 0 0 0 0 0 1 0 0 0 0 0 1 0"
         in="fbSourceGraphic" />
    </filter>
  </defs>
  <sodipodi:namedview
     id="base"
     pagecolor="#ffffff"
     bordercolor="#666666"
     borderopacity="1.0"
     inkscape:pageopacity="0.0"
     inkscape:pageshadow="2"
     inkscape:zoom="1.979899"
     inkscape:cx="174.30525"
     inkscape:cy="110.47581"
     inkscape:document-units="px"
     inkscape:current-layer="g868"
     inkscape:document-rotation="0"
     showgrid="true"
     inkscape:window-width="1448"
     inkscape:window-height="840"
     inkscape:window-x="247"
     inkscape:window-y="105"
     inkscape:window-maximized="0">
    <inkscape:grid
       type="xygrid"
       id="grid371" />
  </sodipodi:namedview>
  <metadata
     id="metadata365">
    <rdf:RDF>
      <cc:Work
         rdf:about="">
        <dc:format>image/svg+xml</dc:format>
        <dc:type
           rdf:resource="http://purl.org/dc/dcmitype/StillImage" />
        <dc:title />
      </cc:Work>
    </rdf:RDF>
  </metadata>
  <g
     inkscape:label="图层 1"
     inkscape:groupmode="layer"
     id="layer1"
     style="display:inline">
    <g
       style="clip-rule:evenodd;display:inline;fill-rule:evenodd"
       id="g704"
       transform="matrix(0.125,0,0,0.125,82.3625,108.3075)">
      <g
         id="g1539"
         transform="matrix(1.8956055,0,0,1.8956055,-605.45002,-813.01002)"
         style="display:inline">
        <g
           id="g868"
           transform="matrix(1.1208442,0,0,1.1208442,-57.565111,-47.816777)">
          <path
             d="m -62.434094,-38.974479 h 0.334482 c -0.08919,0.07805 -0.256437,0.245287 -0.334482,0.323333 z M 392.86347,518.96463 c 15.14091,-16.02172 29.32297,-32.95768 45.04365,-48.43308 0.86965,3.27794 2.01804,6.53356 1.95114,9.97874 0.14495,11.17171 0.59093,22.34342 0.50173,33.52629 -0.14495,11.88527 0.97,23.74826 0.82506,35.64469 0.61321,13.63573 -0.14495,27.29377 0.76931,40.9072 0.84736,21.65217 0.18953,43.33779 1.34907,64.96765 0.55748,18.21815 0,36.4586 1.08149,54.65444 0.16725,14.13747 0.54633,28.28608 0.47943,42.43468 0.84736,13.357 0.71356,26.74746 1.04804,40.12676 -0.32333,9.29861 0.95886,18.55263 0.72473,27.85123 0.14493,16.3339 0.14493,32.69009 1.08149,49.01284 0.0669,23.77056 0.51286,47.52996 1.00344,71.28938 1.07034,9.4101 2.68701,18.84251 1.8954,28.36411 -7.4478,-0.86966 -13.88102,-5.32942 -19.68987,-9.78919 C 364.85614,907.75593 298.807,855.96688 232.72441,804.22245 c -11.11597,-7.96068 -19.00976,-20.1247 -22.35458,-33.33676 -1.49402,-5.60816 -1.72817,-11.4393 -2.35253,-17.18125 -5.28482,-53.46146 -10.54735,-106.92291 -15.87677,-160.37321 -0.0892,-1.7393 -0.078,-3.46747 0.0335,-5.19562 3.34482,2.39711 7.01298,4.27022 10.54735,6.35516 21.49607,12.3424 42.9364,24.77401 64.44362,37.09411 8.15023,4.87229 20.20275,3.98034 26.29033,-3.77965 33.04687,-36.35825 66.35017,-72.48236 99.40819,-108.8406 z"
             id="path666"
             style="fill:#ffcd11;fill-opacity:1;stroke-width:1.11494" />
          <path
             d="m 560.40576,35.425578 c 5.89803,-4.805399 11.70688,-10.257463 14.52769,-17.515734 0.36793,5.307122 1.46057,10.5139 2.10724,15.787574 1.8731,14.248954 2.37482,28.709747 1.08149,43.036746 -1.51632,10.692288 -4.52666,21.886304 -12.18632,29.891586 -5.16217,5.13988 -12.28665,7.47011 -18.92055,10.07907 -11.08253,3.66816 -22.41033,6.64506 -33.91652,8.57391 7.45895,10.447 15.98825,20.1024 23.8486,30.24836 25.8555,32.11032 51.67754,64.24294 77.3881,96.47591 6.82344,8.66309 14.67262,17.0363 17.77216,27.92928 4.33713,14.73953 2.35253,30.86159 -4.22563,44.64227 -16.41194,34.84192 -56.61673,56.15961 -94.65854,51.75558 -17.67183,-2.10723 -35.16526,-10.70343 -45.50077,-25.55445 -9.07563,-12.60999 -11.89642,-29.07769 -8.6854,-44.16284 3.53437,-17.41539 13.78069,-32.99113 27.10424,-44.54193 16.69068,-14.27125 38.24249,-23.29112 60.32949,-23.55871 1.83965,-0.10036 3.6793,-0.25644 5.53011,-0.34563 -0.56862,-0.78046 -1.10379,-1.56092 -1.61666,-2.35253 -36.34711,-38.73308 -72.50466,-77.65568 -108.82946,-116.42221 -3.7908,-3.41172 -2.60896,-8.94182 -1.99574,-13.39045 2.00689,-11.517343 10.10137,-20.671012 18.66411,-28.063078 13.83644,-11.38355 31.00654,-17.225848 47.44077,-23.692509 12.11943,-5.173329 24.17194,-10.870681 34.74159,-18.820215 z M 341.46467,108.48771 c 6.82344,-6.12103 16.45653,-7.6931 25.33147,-7.07989 14.89562,0.65782 28.35296,7.8715 41.19709,14.79528 11.69575,5.85344 23.94895,11.11597 36.98262,12.97792 3.98034,0.64667 8.00528,0.0111 11.92988,-0.74701 -11.3947,13.04482 -23.58102,26.06734 -39.08986,34.22871 -7.34746,3.56782 -16.08861,6.50011 -24.13849,3.51207 -11.87413,-4.61586 -22.09814,-12.38701 -32.31101,-19.81252 -2.21873,6.7454 -3.12184,13.81413 -4.79424,20.70447 -7.21368,33.98342 -14.4385,67.96685 -21.79712,101.92796 -1.7616,7.22483 -2.47516,14.91793 -6.52241,21.35114 -6.15447,11.12712 -17.61607,18.27389 -29.4902,21.9978 -29.25607,8.46241 -63.42903,-3.43402 -80.50994,-28.81009 -7.5816,-11.5508 -11.07137,-26.32378 -6.84574,-39.74768 3.7462,-13.20091 14.3939,-23.63676 26.89239,-28.82124 24.88551,-10.66998 55.23422,-4.23677 75.34776,13.3347 3.03264,2.63126 5.49666,5.83115 8.6185,8.35091 1.31563,-5.5747 1.63897,-11.29435 2.51976,-16.93596 4.57126,-34.26215 9.27632,-68.49086 13.84758,-102.75302 0.50173,-2.92115 0.1784,-6.48896 2.83196,-8.47355 z"
             id="path670"
             style="fill:#03b7ff;fill-opacity:1;stroke-width:1.11494" />
          <path
             d="m 632.10765,279.93228 c 7.06874,-1.24873 14.15977,-2.34138 21.22849,-3.55666 0.223,16.76873 -0.11148,33.55974 0.80276,50.31731 0.73586,28.95504 -0.25643,57.95468 1.40482,86.87626 -67.15293,16.32274 -134.18322,33.12491 -201.3027,49.53686 -4.57126,1.05919 -9.42127,0.9031 -13.85873,-0.62437 -68.40167,-26.51332 -136.62495,-53.52834 -204.94857,-80.2312 -19.11011,-7.6931 -38.53239,-14.66149 -57.43065,-22.83401 98.24866,-17.41538 196.58651,-34.3179 294.85746,-51.58835 2.06265,-0.39023 4.1253,-0.74701 6.17678,-1.21528 -3.21102,15.08515 -0.39023,31.55285 8.6854,44.16284 10.33551,14.85102 27.82894,23.44722 45.50077,25.55445 38.04181,4.40403 78.2466,-16.91366 94.65854,-51.75558 6.57816,-13.78068 8.56276,-29.90274 4.22563,-44.64227 z"
             id="path672"
             style="fill:#ff9d1c;fill-opacity:1;stroke-width:1.11494" />
          <path
             d="m 653.33614,276.37562 c 5.37402,0.15609 10.42471,2.04034 15.50884,3.60126 77.03133,23.32458 154.06264,46.64916 231.11626,69.92914 2.04034,0.64666 4.45976,1.42712 4.72735,3.95805 -6.81229,2.78735 -14.13745,3.73505 -21.20619,5.63045 -75.98328,18.0063 -151.9554,36.07951 -227.93868,54.07467 -1.66125,-28.92158 -0.66896,-57.92122 -1.40482,-86.87626 -0.91424,-16.75757 -0.57976,-33.54858 -0.80276,-50.31731 z"
             id="path674"
             style="fill:#ff9d1c;fill-opacity:1;stroke-width:1.11518;stroke-miterlimit:4;stroke-dasharray:none" />
          <path
             d="m 904.68859,353.86407 0.60207,-0.60208 c 0.31218,0.59093 0.95885,1.76162 1.28218,2.35253 -0.36793,31.57515 0.65782,63.1726 0.078,94.75889 -0.32333,112.27463 -0.12265,224.57155 -0.25644,336.84617 0.11149,11.01563 -4.97264,21.85286 -13.2455,29.06654 -4.50437,4.11413 -10.10138,6.74539 -15.82103,8.72999 -132.22093,47.99823 -264.43071,96.02992 -396.65164,144.05045 -3.7016,1.21529 -7.42552,2.46403 -11.29437,3.05494 -6.33286,0.63553 -12.62113,-0.76931 -18.80906,-1.83965 l 0.0446,-0.99229 c 0.79161,-9.5216 -0.82506,-18.95401 -1.8954,-28.36411 -0.49058,-23.75942 -0.93655,-47.51882 -1.00344,-71.28938 -0.93656,-16.32275 -0.93656,-32.67894 -1.0815,-49.01284 0.23414,-9.2986 -1.04805,-18.55262 -0.72472,-27.85123 -0.33448,-13.3793 -0.20068,-26.76976 -1.04804,-40.12676 0.0669,-14.1486 -0.31218,-28.29721 -0.47943,-42.43468 -1.08149,-18.19584 -0.52401,-36.43629 -1.08149,-54.65444 -1.15954,-21.62986 -0.50171,-43.31548 -1.34907,-64.96765 -0.91426,-13.61343 -0.1561,-27.27147 -0.76931,-40.9072 0.14493,-11.89643 -0.97001,-23.75942 -0.82506,-35.64469 0.0892,-11.18287 -0.35678,-22.35458 -0.50173,-33.52629 0.0669,-3.44518 -1.08149,-6.7008 -1.95115,-9.97874 0.1115,-2.86539 1.41599,-5.45205 2.47518,-8.04987 4.43746,1.52747 9.28746,1.68356 13.85872,0.62437 67.11949,-16.41195 134.14978,-33.21412 201.30271,-49.53686 75.98328,-17.99516 151.9554,-36.06837 227.93868,-54.07467 7.06873,-1.8954 14.3939,-2.8431 21.20619,-5.63045 m -137.18243,92.6628 c -13.12285,3.09953 -24.75169,10.87068 -33.71583,20.81596 -28.28606,31.80928 -56.20421,63.9419 -84.56832,95.68429 -0.34563,-12.59884 -0.22298,-25.21998 -0.70241,-37.81883 -1.05919,-11.94102 -5.67505,-23.77055 -13.78068,-32.70124 -7.01298,-7.67079 -16.82448,-12.56538 -27.10424,-13.88102 -15.94367,-1.92885 -32.97997,1.85081 -45.54537,12.17517 -13.46849,10.88182 -21.10584,27.5279 -23.79285,44.35237 -1.60552,9.59966 -0.65781,19.33309 -0.25643,28.97734 0.0557,13.02252 0.40138,26.03388 1.10379,39.03411 0,12.66574 0.51288,25.33147 0.85851,37.99721 -0.0335,16.73527 1.33792,33.42595 1.17069,50.16122 0.31218,15.97712 1.49402,31.92078 1.41597,47.90905 0.41253,20.0801 1.34908,40.1379 1.19299,60.21799 -0.23414,15.50884 3.27793,31.70895 13.02251,44.11825 7.09104,9.15367 18.16241,14.82872 29.6463,15.82102 15.50884,1.32678 32.07688,-2.15184 44.21859,-12.33125 13.34585,-11.13827 20.38113,-28.39757 21.91975,-45.42273 0.47943,-23.42492 -0.92539,-46.86099 -0.50173,-70.27478 6.22138,2.96576 12.04138,6.65621 18.07321,9.96758 28.25262,15.96597 56.41605,32.07688 84.72442,47.9425 14.4831,8.41781 32.19952,11.95218 48.54456,7.4701 15.94367,-3.99148 29.72435,-15.56458 36.21331,-30.68319 5.67505,-12.44274 5.79769,-27.14882 0.59091,-39.75881 -4.38171,-10.10138 -12.27551,-18.49688 -21.89745,-23.79287 -33.03572,-19.13239 -65.8819,-38.59927 -99.08486,-57.41948 1.31562,-2.78736 3.69045,-4.81656 5.7085,-7.06874 30.85043,-34.55204 61.77891,-69.02604 92.6182,-103.57808 9.01988,-9.88953 14.38275,-22.82285 15.95482,-36.04606 1.23758,-15.92137 -6.27713,-32.22181 -19.21045,-41.60962 -12.96678,-10.30206 -30.70549,-14.51654 -46.81641,-10.25746 z"
             id="path676"
             style="fill:#feec5a;fill-opacity:1;stroke-width:1.11494" />
          <path
             d="m 906.57284,355.61452 c 0.75816,0.71356 1.44943,1.50517 2.0738,2.35253 16.24469,27.19342 32.70124,54.27536 49.05743,81.40188 1.48287,2.69816 3.93574,5.42977 3.27792,8.7523 -0.72471,3.9023 -5.13987,6.05413 -8.80804,5.76425 -15.1632,-1.36023 -30.38216,-1.9846 -45.52306,-3.51207 0.57977,-31.58629 -0.44598,-63.18374 -0.078,-94.75889 z"
             id="path678"
             style="fill:#ffc779;fill-opacity:1;stroke-width:1.11494" />
          <path
             d="m 162.41618,365.37026 c 4.19219,-3.73505 9.96759,-5.99839 15.58689,-5.95379 18.89826,8.17252 38.32054,15.14091 57.43065,22.83401 68.32362,26.70286 136.5469,53.71788 204.94857,80.2312 -1.05919,2.59782 -2.36368,5.18448 -2.47517,8.04987 -15.72068,15.4754 -29.90274,32.41136 -45.04365,48.43308 -33.05802,36.35824 -66.36132,72.48235 -99.40819,108.8406 -6.08758,7.75999 -18.1401,8.65194 -26.29033,3.77965 -21.50722,-12.3201 -42.94755,-24.75171 -64.44362,-37.09411 -3.53437,-2.08494 -7.20253,-3.95805 -10.54735,-6.35516 -2.75391,-2.06265 -5.6416,-3.93575 -8.71884,-5.48552 -45.69031,-25.68825 -91.324876,-51.47685 -137.026331,-77.14281 -3.913447,-1.75046 -5.217927,-6.94608 -3.110688,-10.5362 1.415972,-2.25218 3.38942,-4.06954 5.173334,-6.03183 C 86.455214,447.7533 124.45242,406.56736 162.41618,365.37026 Z"
             id="path680"
             style="fill:#feec5a;fill-opacity:1;stroke-width:1.11494" />
          <path
             d="m 767.50617,446.52687 c 16.11091,-4.25908 33.84962,-0.0446 46.8164,10.25746 12.93332,9.38781 20.44803,25.68825 19.21045,41.60962 -1.57207,13.22321 -6.93494,26.15653 -15.95482,36.04606 -30.83929,34.55204 -61.76777,69.02604 -92.6182,103.57808 -2.01805,2.25218 -4.39288,4.28138 -5.7085,7.06874 33.20296,18.82021 66.04914,38.28709 99.08486,57.41948 9.62194,5.29599 17.51574,13.69149 21.89745,23.79287 5.20678,12.60999 5.08414,27.31607 -0.59091,39.75881 -6.48896,15.11861 -20.26964,26.69171 -36.21331,30.68319 -16.34504,4.48208 -34.06146,0.94771 -48.54456,-7.4701 -28.30837,-15.86562 -56.47179,-31.97653 -84.72442,-47.9425 -6.03183,-3.31137 -11.85183,-7.00182 -18.07321,-9.96758 -0.42366,23.41379 0.98116,46.84986 0.50173,70.27478 -1.53862,17.02516 -8.5739,34.28446 -21.91975,45.42273 -12.14171,10.17941 -28.70974,13.65803 -44.21859,12.33125 -11.48389,-0.9923 -22.55526,-6.66735 -29.6463,-15.82102 -9.74458,-12.4093 -13.25665,-28.60941 -13.02251,-44.11825 0.15609,-20.08009 -0.78046,-40.13789 -1.19299,-60.21799 0.078,-15.98827 -1.10379,-31.93193 -1.41597,-47.90905 0.16723,-16.73527 -1.20414,-33.42595 -1.17069,-50.16122 -0.34563,-12.66574 -0.85851,-25.33147 -0.85851,-37.99721 -0.70241,-13.00023 -1.04804,-26.01159 -1.10379,-39.03411 -0.40138,-9.64425 -1.34909,-19.37768 0.25643,-28.97734 2.68701,-16.82447 10.32436,-33.47055 23.79286,-44.35237 12.56539,-10.32436 29.6017,-14.10402 45.54537,-12.17517 10.27975,1.31564 20.09125,6.21023 27.10423,13.88102 8.10563,8.93069 12.72149,20.76022 13.78068,32.70124 0.47943,12.59885 0.35678,25.21999 0.70241,37.81883 28.36411,-31.74239 56.28226,-63.87501 84.56832,-95.68429 8.96414,-9.94528 20.59298,-17.71643 33.71584,-20.81596 z"
             id="path682"
             style="fill:#ff7200;fill-opacity:1;stroke-width:1.11518;stroke-miterlimit:4;stroke-dasharray:none" />
        </g>
      </g>
    </g>
  </g>
</svg>
